<svg width="16" height="16" viewBox="0 0 16 16" fill="none" xmlns="http://www.w3.org/2000/svg">
<g clip-path="url(#clip0_11_2459)">
<path d="M12.3826 11.4276C12.3826 11.4276 10.4938 13.2001 7.99631 13.2001C5.49881 13.2001 3.61131 11.4276 3.61131 11.4276C3.61131 11.4276 3.26006 9.74135 4.16756 6.8301C4.64631 5.2951 11.4588 5.13885 11.9926 6.48135C12.9001 8.7601 12.3826 11.4276 12.3826 11.4276Z" fill="#424242"/>
<path d="M3.61136 11.4275L4.21011 11.9075C4.21011 11.9075 4.20511 10.9575 4.49886 10.0713C4.60886 9.74002 5.00136 9.60127 5.29636 9.78752L7.58261 11.2213C7.70795 11.2997 7.85261 11.3419 8.00047 11.343C8.14834 11.3441 8.29361 11.3041 8.42011 11.2275C9.51261 10.565 12.3626 8.83127 12.4926 8.72502C12.4926 8.72502 12.4926 8.51127 12.4389 8.23877L3.57886 8.25002L3.61136 11.4275Z" fill="#212121"/>
<path d="M15.3514 6.5037L8.25136 10.7325C8.09636 10.825 7.90261 10.825 7.74636 10.7325L0.648857 6.5037C0.451357 6.3862 0.451357 6.09995 0.648857 5.98245L7.74886 1.7537C7.90386 1.6612 8.09761 1.6612 8.25386 1.7537L15.3539 5.98245C15.5501 6.09995 15.5501 6.3862 15.3514 6.5037Z" fill="#424242"/>
<path d="M8.00496 10.4224C8.00371 10.4224 8.00121 10.4236 7.99996 10.4236C7.97996 10.4236 7.95996 10.4186 7.94246 10.4074L0.522459 6.12988C0.522459 6.12988 0.486209 6.19863 0.522459 6.32238C0.559959 6.44613 0.617459 6.48613 0.648709 6.50488L7.74871 10.7336C7.82621 10.7799 7.91371 10.8036 8.00121 10.8036H8.00621V10.4224H8.00496Z" fill="#9E9E9E"/>
<path d="M8.00003 10.4224C8.00128 10.4224 8.00378 10.4236 8.00503 10.4236C8.02503 10.4236 8.04503 10.4186 8.06253 10.4074L15.4825 6.12988C15.4825 6.12988 15.5188 6.19863 15.4825 6.32238C15.445 6.44613 15.3875 6.48613 15.3563 6.50488L8.25628 10.7336C8.17878 10.7799 8.09128 10.8036 8.00378 10.8036H7.99878V10.4224H8.00003Z" fill="#616161"/>
<path d="M4.43115 8.7575L4.47115 8.40626C4.47115 8.40626 7.5349 6.74001 7.8374 6.56501C8.1399 6.39001 8.4574 6.19501 8.59865 6.03876C8.84865 5.76376 8.66865 5.59126 8.66865 5.59126C8.66865 5.59126 8.47115 5.91126 7.9999 5.85501C7.7299 5.82251 7.37865 5.60376 7.3199 5.50126C7.26115 5.39876 3.86115 7.98876 3.86115 7.98876L3.8374 8.405L4.43115 8.7575Z" fill="#424242"/>
<path d="M8.66867 5.59247C8.34117 6.04997 7.78617 5.84997 7.78617 5.84997C7.78617 5.84997 6.04742 6.68372 5.98242 6.55747C5.91742 6.43122 7.41867 5.65872 7.41867 5.65872C7.41867 5.65872 7.33492 5.35122 7.34367 5.21997C7.34367 5.21997 4.62867 6.94747 3.60992 7.52872C3.07617 7.83372 2.96242 8.12122 2.96367 8.52622C2.96367 8.70372 2.96617 9.27997 2.96867 9.62372C2.96867 9.68747 2.94117 9.74747 2.89242 9.78747C2.8186 9.84795 2.75911 9.92406 2.71826 10.0103C2.6774 10.0965 2.6562 10.1908 2.65617 10.2862C2.65617 10.4775 2.73992 10.6487 2.87242 10.7675C2.94367 10.8312 2.92867 10.9687 2.93492 11.0575C2.94742 11.2275 2.93492 11.305 2.86492 11.4625C2.79617 11.6162 2.73242 11.7737 2.68867 11.9362C2.65492 12.0612 2.63242 12.19 2.60992 12.3175C2.46117 13.1712 2.39367 14.0837 1.99992 14.8687C1.9925 14.8834 1.98808 14.8994 1.98689 14.9158C1.98571 14.9322 1.9878 14.9486 1.99303 14.9642C1.99826 14.9798 2.00654 14.9942 2.01738 15.0066C2.02822 15.0189 2.0414 15.029 2.05617 15.0362C2.08586 15.0512 2.12027 15.0538 2.15189 15.0435C2.18351 15.0332 2.20976 15.0108 2.22492 14.9812C2.42992 14.5725 2.53617 14.125 2.62367 13.6812C2.61867 14.0825 2.61617 14.4875 2.60242 14.925C2.59992 15.01 2.59367 15.1812 2.67117 15.2187C2.96242 15.36 2.96242 14.925 2.96242 14.925C2.96242 14.925 2.96617 15.3162 3.36242 15.3162C3.75867 15.3162 3.78742 14.925 3.78742 14.925C3.78742 14.925 3.81617 15.2837 4.01992 15.2662C4.10242 15.2587 4.21117 15.2087 4.17242 14.78C4.13367 14.3525 4.03742 12.82 3.99617 12.335C3.93867 11.6637 3.71867 11.265 3.67367 11.0275C3.65742 10.9375 3.65617 10.8437 3.72742 10.785C3.79993 10.7256 3.85864 10.6511 3.89945 10.5667C3.94027 10.4823 3.96221 10.39 3.96375 10.2962C3.9653 10.2025 3.94641 10.1095 3.90841 10.0238C3.8704 9.93815 3.81419 9.86175 3.74367 9.79997C3.7186 9.77807 3.69899 9.75062 3.6864 9.71981C3.67381 9.68899 3.6686 9.65566 3.67117 9.62247C3.69492 9.29872 3.72117 8.82872 3.74242 8.71997C3.83492 8.23122 4.07617 8.14372 4.32367 7.99872C4.57117 7.85247 8.15617 6.22497 8.36492 6.08622C8.75117 5.82747 8.66867 5.59247 8.66867 5.59247Z" fill="#E2A610"/>
<path d="M8.66868 5.59247C8.35993 6.02872 7.71868 5.83372 7.71868 5.83372C7.71868 5.83372 6.07993 6.55997 6.18868 6.42872C6.29618 6.29747 7.41868 5.65872 7.41868 5.65872C7.41868 5.65872 7.33493 5.35122 7.34368 5.21997C7.34368 5.21997 4.58118 6.81622 3.50993 7.58372C3.23368 7.78247 2.89118 8.10747 3.16993 8.43122C3.29868 8.57997 3.54743 8.61122 3.70618 8.49372C3.80243 8.42372 3.87743 8.32122 3.96243 8.23997C4.06743 8.13747 4.19493 8.07247 4.31993 7.99872C4.56743 7.85247 8.15243 6.22497 8.36118 6.08622C8.75118 5.82747 8.66868 5.59247 8.66868 5.59247Z" fill="#FFCA28"/>
<path d="M3.26364 11.4826C3.09864 11.4826 2.98739 11.4688 2.88614 11.4451C2.86808 11.441 2.85209 11.4305 2.84108 11.4156C2.83008 11.4007 2.82477 11.3823 2.82614 11.3638L2.85864 10.8863C2.86239 10.8376 2.90864 10.8038 2.95614 10.8176C3.06864 10.8501 3.29364 10.8826 3.66114 10.8051C3.70614 10.7951 3.75114 10.8263 3.75614 10.8726L3.80614 11.3476C3.80989 11.3863 3.78489 11.4226 3.74739 11.4313C3.55614 11.4751 3.41739 11.4826 3.26364 11.4826Z" fill="#9E740B"/>
<path d="M12.3825 11.4276C12.3825 11.4276 12.6037 10.2726 12.515 9.04383C12.5 8.83633 12.3725 8.65758 12.2737 9.38383C12.2175 9.80008 12.095 11.0463 11.8862 11.8251C12.205 11.5951 12.3825 11.4276 12.3825 11.4276ZM8.21622 4.59883C8.30747 4.62758 8.39122 4.69758 8.41497 4.79133C8.44622 4.91633 8.36747 5.04133 8.28247 5.13883C8.11622 5.33008 7.88747 5.49758 7.63372 5.48883C7.54997 5.48633 7.45997 5.45883 7.40872 5.39258C7.37247 5.34633 7.35997 5.28633 7.35622 5.22758C7.33372 4.79883 7.81872 4.47383 8.21622 4.59883Z" fill="#616161"/>
</g>
<defs>
<clipPath id="clip0_11_2459">
<rect width="16" height="16" fill="white"/>
</clipPath>
</defs>
</svg>
