<svg width="60" height="60" viewBox="0 0 60 60" fill="none" xmlns="http://www.w3.org/2000/svg">
<rect width="60" height="60" rx="10" fill="#FFDDB9"/>
<path d="M30.5 22C39.8198 22 47.375 19.4816 47.375 16.375C47.375 13.2684 39.8198 10.75 30.5 10.75C21.1802 10.75 13.625 13.2684 13.625 16.375C13.625 19.4816 21.1802 22 30.5 22Z" stroke="#F77F00" stroke-width="2" stroke-linecap="round" stroke-linejoin="round"/>
<path d="M13.625 16.375V42.625C13.625 44.1168 15.4029 45.5476 18.5676 46.6025C21.7322 47.6574 26.0245 48.25 30.5 48.25C34.9755 48.25 39.2677 47.6574 42.4324 46.6025C45.5971 45.5476 47.375 44.1168 47.375 42.625V16.375" stroke="#F77F00" stroke-width="2" stroke-linecap="round" stroke-linejoin="round"/>
<path d="M13.625 29.5C13.625 30.9918 15.4029 32.4226 18.5676 33.4775C21.7322 34.5324 26.0245 35.125 30.5 35.125C34.9755 35.125 39.2677 34.5324 42.4324 33.4775C45.5971 32.4226 47.375 30.9918 47.375 29.5" stroke="#F77F00" stroke-width="2" stroke-linecap="round" stroke-linejoin="round"/>
</svg>
