<svg width="60" height="60" viewBox="0 0 60 60" fill="none" xmlns="http://www.w3.org/2000/svg">
<rect width="60" height="60" rx="10" fill="white"/>
<path d="M37.0194 32.1689L39.86 48.1552C39.8918 48.3434 39.8654 48.5369 39.7843 48.7097C39.7032 48.8826 39.5713 49.0265 39.4061 49.1223C39.241 49.2181 39.0506 49.2612 38.8603 49.2459C38.67 49.2306 38.4889 49.1575 38.3413 49.0364L31.6288 43.9983C31.3047 43.7562 30.9111 43.6254 30.5066 43.6254C30.1021 43.6254 29.7084 43.7562 29.3844 43.9983L22.6606 49.0346C22.5131 49.1554 22.3323 49.2283 22.1422 49.2437C21.9521 49.2591 21.7619 49.2161 21.5969 49.1206C21.4319 49.025 21.2999 48.8814 21.2186 48.7089C21.1373 48.5365 21.1106 48.3433 21.1419 48.1552L23.9806 32.1689" stroke="#4554FF" stroke-width="2" stroke-linecap="round" stroke-linejoin="round"/>
<path d="M30.5 34.25C36.7132 34.25 41.75 29.2132 41.75 23C41.75 16.7868 36.7132 11.75 30.5 11.75C24.2868 11.75 19.25 16.7868 19.25 23C19.25 29.2132 24.2868 34.25 30.5 34.25Z" stroke="#4554FF" stroke-width="2" stroke-linecap="round" stroke-linejoin="round"/>
</svg>
