<svg width="50" height="50" viewBox="0 0 50 50" fill="none" xmlns="http://www.w3.org/2000/svg">
<rect width="50" height="50" rx="25" fill="white"/>
<path d="M23.75 31.25L26.25 33.75C26.4962 33.9962 26.7885 34.1915 27.1103 34.3248C27.432 34.4581 27.7768 34.5267 28.125 34.5267C28.4732 34.5267 28.818 34.4581 29.1397 34.3248C29.4615 34.1915 29.7538 33.9962 30 33.75C30.2462 33.5038 30.4415 33.2115 30.5748 32.8897C30.7081 32.568 30.7767 32.2232 30.7767 31.875C30.7767 31.5268 30.7081 31.182 30.5748 30.8603C30.4415 30.5385 30.2462 30.2462 30 30" stroke="#3746F2" stroke-width="2" stroke-linecap="round" stroke-linejoin="round"/>
<path d="M27.5 27.5001L30.625 30.6251C31.1223 31.1224 31.7968 31.4018 32.5 31.4018C33.2033 31.4018 33.8778 31.1224 34.375 30.6251C34.8723 30.1279 35.1517 29.4534 35.1517 28.7501C35.1517 28.0469 34.8723 27.3724 34.375 26.8751L29.525 22.0251C28.8219 21.3229 27.8688 20.9284 26.875 20.9284C25.8813 20.9284 24.9282 21.3229 24.225 22.0251L23.125 23.1251C22.6278 23.6224 21.9533 23.9018 21.25 23.9018C20.5468 23.9018 19.8723 23.6224 19.375 23.1251C18.8778 22.6279 18.5984 21.9534 18.5984 21.2501C18.5984 20.5469 18.8778 19.8724 19.375 19.3751L22.8875 15.8626C24.0278 14.7253 25.5149 14.0008 27.1133 13.8039C28.7118 13.6069 30.3302 13.9487 31.7125 14.7751L32.3 15.1251C32.8323 15.4464 33.4651 15.5578 34.075 15.4376L36.25 15.0001" stroke="#3746F2" stroke-width="2" stroke-linecap="round" stroke-linejoin="round"/>
<path d="M36.25 13.75L37.5 27.5H35" stroke="#3746F2" stroke-width="2" stroke-linecap="round" stroke-linejoin="round"/>
<path d="M13.75 13.75L12.5 27.5L20.625 35.625C21.1223 36.1223 21.7967 36.4017 22.5 36.4017C23.2033 36.4017 23.8777 36.1223 24.375 35.625C24.8723 35.1277 25.1517 34.4533 25.1517 33.75C25.1517 33.0467 24.8723 32.3723 24.375 31.875" stroke="#3746F2" stroke-width="2" stroke-linecap="round" stroke-linejoin="round"/>
<path d="M13.75 15H23.75" stroke="#3746F2" stroke-width="2" stroke-linecap="round" stroke-linejoin="round"/>
</svg>
