<svg width="119" height="38" viewBox="0 0 119 38" fill="none" xmlns="http://www.w3.org/2000/svg">
<path d="M48.9584 14.3184H51.7384L48.1098 24.7737H45.4437L41.8594 14.3184H44.6458L46.8052 21.753L48.9584 14.3184Z" fill="#B3B3B3"/>
<path d="M52.6123 14.3184H60.3446V16.3512H55.2214V18.251H60.0026V20.2331H55.2214V22.7219H60.8068V24.78H52.6123V14.3184Z" fill="#B3B3B3"/>
<path d="M62.6309 14.3184H67.3361C68.4316 14.3184 69.7932 14.35 70.7621 15.3823C71.3081 16.0346 71.6004 16.8621 71.5853 17.7127C71.624 18.3696 71.43 19.0191 71.0374 19.5472C70.6448 20.0753 70.0787 20.4482 69.4385 20.6004L71.864 24.7737H68.9762L66.8928 21.0564H65.2526V24.7864H62.6309V14.3184ZM65.2526 16.2752V19.1059H67.4311C67.6321 19.1319 67.8364 19.1136 68.0297 19.0525C68.223 18.9913 68.4006 18.8887 68.5502 18.7519C68.6997 18.615 68.8176 18.4471 68.8955 18.26C68.9735 18.0728 69.0097 17.8709 69.0016 17.6684C69.0016 16.3322 68.039 16.2878 67.4881 16.2752H65.2526Z" fill="#B3B3B3"/>
<path d="M76.1828 14.3184V24.7737H73.5737V14.3184H76.1828Z" fill="#B3B3B3"/>
<path d="M79.8557 21.6389C80.1344 21.973 80.4767 22.2485 80.8626 22.4495C81.4819 22.7816 82.1736 22.9556 82.8764 22.9561C83.9086 22.9561 84.7762 22.4621 84.7762 21.7402C84.7762 20.9106 83.725 20.7776 82.9524 20.67C82.3761 20.6003 81.7998 20.5243 81.2362 20.404C80.6726 20.2837 78.4245 19.8151 78.4245 17.5606C78.4245 14.8692 80.8182 14.0649 82.6294 14.0649C83.4939 14.0637 84.3495 14.2395 85.1434 14.5815C85.9374 14.9235 86.6529 15.4244 87.246 16.0534L85.3461 17.4276C85.0432 17.1 84.6957 16.8164 84.3139 16.5854C83.7909 16.2981 83.2069 16.1396 82.6104 16.1231C81.5718 16.1231 81.0525 16.7184 81.0525 17.225C81.0525 18.0229 81.9455 18.1369 82.3888 18.2002C83.47 18.3252 84.5395 18.537 85.5868 18.8335C86.1261 19.0058 86.5943 19.3496 86.9202 19.8126C87.246 20.2756 87.4115 20.8324 87.3916 21.3982C87.3855 22.2118 87.0916 22.997 86.562 23.6147C85.6184 24.7166 84.1049 25.0269 82.6357 25.0269C79.691 25.0269 78.5195 23.659 77.8672 22.9054L79.8557 21.6389Z" fill="#B3B3B3"/>
<path d="M91.9514 14.3184V24.7737H89.3486V14.3184H91.9514Z" fill="#B3B3B3"/>
<path d="M101.577 23.7984C101.172 24.2018 100.689 24.5179 100.158 24.727C99.6262 24.9362 99.0574 25.034 98.4865 25.0143C95.5671 25.0143 93.7749 22.6396 93.7749 19.5618C93.7749 16.1992 95.9534 13.9637 98.9297 13.9637C99.8386 13.9584 100.735 14.1755 101.541 14.596C102.347 15.0166 103.037 15.6278 103.553 16.3765L101.564 17.5797C101.335 17.1295 100.985 16.7522 100.553 16.4903C100.121 16.2285 99.6248 16.0926 99.1197 16.0978C97.1312 16.0978 96.3777 17.738 96.3777 19.4859C96.3193 20.4481 96.6194 21.3978 97.2199 22.1519C97.4705 22.398 97.7675 22.5919 98.0936 22.7224C98.4197 22.8528 98.7685 22.9172 99.1197 22.9119C99.626 22.9181 100.123 22.7773 100.551 22.5066C100.808 22.3361 101.019 22.1059 101.167 21.8356C101.315 21.5653 101.394 21.2631 101.4 20.955H99.0564V18.9666H103.603V24.7737H101.564L101.577 23.7984Z" fill="#B3B3B3"/>
<path d="M105.757 14.3184H108.29L110.557 18.1687C111.387 19.6378 111.64 20.1128 112.127 21.031L112.007 14.3184H114.54V24.7737H111.976L110.025 21.4743C109.357 20.4155 108.744 19.3226 108.189 18.2003L108.265 24.7737H105.731L105.757 14.3184Z" fill="#B3B3B3"/>
<path d="M37.0465 18.5232C37.0465 22.187 35.9599 25.7686 33.9243 28.8148C31.8887 31.8611 28.9953 34.2353 25.6103 35.6371C22.2253 37.0389 18.5005 37.4053 14.9072 36.6901C11.3139 35.9748 8.01336 34.21 5.4231 31.6189C2.83283 29.0277 1.06916 25.7266 0.355155 22.133C-0.358852 18.5395 0.00887288 14.8149 1.41182 11.4303C2.81477 8.04574 5.18993 5.15325 8.23689 3.11865C11.2839 1.08405 14.8657 -0.0012515 18.5296 1.08302e-06C23.4406 0.00335763 28.1495 1.95619 31.6215 5.42942C35.0936 8.90265 37.0448 13.6122 37.0465 18.5232Z" fill="url(#paint0_linear_32_26)"/>
<g style="mix-blend-mode:multiply" opacity="0.1">
<path d="M0.0127167 18.5232C0.0108419 22.2715 1.14694 25.932 3.27073 29.0205C5.39452 32.1091 8.40591 34.4801 11.9065 35.82C15.4072 37.1598 19.2321 37.4054 22.8753 36.5241C26.5185 35.6428 29.8084 33.6763 32.3096 30.8846C28.7809 34.0331 24.1813 35.7121 19.4541 35.5774C14.7269 35.4426 10.2304 33.5042 6.8868 30.1598C3.54321 26.8154 1.60594 22.3185 1.47231 17.5912C1.33868 12.864 3.01881 8.26476 6.16813 4.73682C4.22814 6.47092 2.67681 8.59569 1.61597 10.9717C0.555129 13.3476 0.00875777 15.9211 0.0127167 18.5232Z" fill="#404041"/>
</g>
<path d="M33.576 18.5231C33.576 21.4991 32.6936 24.4081 31.0402 26.8825C29.3869 29.3569 27.0369 31.2855 24.2875 32.4243C21.5381 33.5632 18.5128 33.8611 15.594 33.2806C12.6753 32.7 9.99425 31.2669 7.88995 29.1626C5.78565 27.0583 4.35261 24.3773 3.77203 21.4586C3.19146 18.5398 3.48943 15.5145 4.62827 12.7651C5.76711 10.0157 7.69566 7.6657 10.1701 6.01237C12.6444 4.35903 15.5535 3.47656 18.5295 3.47656C20.5054 3.47656 22.462 3.86575 24.2875 4.62191C26.1131 5.37807 27.7718 6.4864 29.169 7.8836C30.5662 9.2808 31.6745 10.9395 32.4307 12.7651C33.1868 14.5906 33.576 16.5472 33.576 18.5231Z" fill="#0064A4"/>
<g style="mix-blend-mode:multiply" opacity="0.1">
<path d="M33.5763 18.5231C33.5761 15.4775 32.6516 12.5037 30.9251 9.9947C29.1986 7.48573 26.7513 5.55977 23.9068 4.47138C21.0623 3.38299 17.9545 3.18343 14.9942 3.89907C12.0338 4.61471 9.36037 6.21186 7.32715 8.47941C10.1934 5.91479 13.933 4.54515 17.7776 4.65184C21.6223 4.75854 25.2801 6.33346 27.9998 9.05309C30.7194 11.7727 32.2943 15.4306 32.401 19.2752C32.5077 23.1199 31.1381 26.8594 28.5734 29.7257C30.1497 28.3164 31.4102 26.5898 32.2724 24.6592C33.1346 22.7286 33.5789 20.6375 33.5763 18.5231Z" fill="#929497"/>
</g>
<path d="M22.0507 11.9624H28.966L25.6224 17.7568H18.707L22.0507 11.9624Z" fill="#B3B3B3"/>
<path d="M18.5297 29.5674L21.9621 23.621L15.2304 11.9624H8.36572L18.5297 29.5674Z" fill="#B3B3B3"/>
<path d="M117.409 16.6235C117.192 16.6234 116.979 16.5593 116.799 16.439C116.618 16.3187 116.477 16.1478 116.393 15.9475C116.309 15.7473 116.286 15.5267 116.327 15.3135C116.368 15.1003 116.471 14.9039 116.623 14.7491C116.775 14.5943 116.97 14.4879 117.182 14.4432C117.395 14.3986 117.616 14.4177 117.818 14.4982C118.019 14.5787 118.193 14.717 118.316 14.8957C118.439 15.0743 118.507 15.2855 118.511 15.5026C118.515 15.6493 118.49 15.7954 118.436 15.9321C118.382 16.0688 118.302 16.1932 118.199 16.2979C118.096 16.4026 117.973 16.4854 117.837 16.5414C117.701 16.5973 117.556 16.6252 117.409 16.6235ZM117.409 14.54C117.214 14.5388 117.023 14.5952 116.86 14.7022C116.697 14.8092 116.57 14.9619 116.494 15.1412C116.417 15.3205 116.396 15.5183 116.432 15.7098C116.468 15.9013 116.559 16.078 116.695 16.2175C116.831 16.357 117.006 16.4532 117.196 16.4939C117.387 16.5347 117.585 16.5182 117.766 16.4465C117.947 16.3748 118.103 16.2512 118.214 16.0911C118.325 15.9311 118.387 15.7417 118.39 15.5469C118.396 15.4146 118.375 15.2825 118.329 15.1586C118.282 15.0347 118.211 14.9216 118.119 14.8262C118.027 14.7308 117.917 14.6551 117.795 14.6037C117.673 14.5523 117.541 14.5263 117.409 14.5273V14.54ZM117.612 16.2055L117.415 15.6799H117.238V16.2055H116.953V14.8123H117.409C117.524 14.8023 117.641 14.8242 117.744 14.8756C117.803 14.9181 117.851 14.9744 117.883 15.0395C117.915 15.1047 117.93 15.1767 117.928 15.2493C117.933 15.3275 117.913 15.4053 117.871 15.4714C117.829 15.5375 117.767 15.5884 117.694 15.6166L117.934 16.1928L117.612 16.2055ZM117.422 15.0846H117.232V15.4392H117.415C117.567 15.4392 117.631 15.3823 117.631 15.2619C117.631 15.1416 117.567 15.0719 117.422 15.0719V15.0846Z" fill="#B3B3B3"/>
<defs>
<linearGradient id="paint0_linear_32_26" x1="31.6256" y1="5.42715" x2="5.43349" y2="31.6193" gradientUnits="userSpaceOnUse">
<stop stop-color="white"/>
<stop offset="0.15" stop-color="#F9F9F9"/>
<stop offset="0.35" stop-color="#E9E9EA"/>
<stop offset="0.58" stop-color="#CECFCF"/>
<stop offset="0.83" stop-color="#A8AAAB"/>
<stop offset="1" stop-color="#898B8D"/>
</linearGradient>
</defs>
</svg>
