<svg width="122" height="18" viewBox="0 0 122 18" fill="none" xmlns="http://www.w3.org/2000/svg">
<g clip-path="url(#clip0_32_63)">
<path d="M14.53 11.6976H15.422C15.422 11.6976 15.0464 16.2749 15.0308 16.2827C13.4424 17.0886 11.768 17.8945 8.72427 17.8945C3.34105 17.8945 0.0704253 14.4205 5.19224e-06 9.13896C-0.0704149 3.67749 3.65403 0 9.07637 0C11.2985 0 13.9197 0.743323 14.8821 1.29886V5.58666H14.0214C13.6537 3.31757 12.6208 1.18932 9.13114 1.18932C5.00766 1.18932 2.66032 4.27998 2.68379 9.03724C2.71509 13.5207 5.21109 16.7052 8.96683 16.7052C12.9338 16.7052 13.7163 14.3892 14.2483 12.6365L14.53 11.6976Z" fill="#717171"/>
<path fill-rule="evenodd" clip-rule="evenodd" d="M26.4857 17.8945C21.0555 17.8945 17.8083 14.5848 17.8083 9.05289C17.8083 3.5523 21.5015 0 27.2055 0C32.5418 0 35.8515 3.32539 35.8515 8.67732C35.8515 14.3579 32.2601 17.8945 26.4857 17.8945ZM33.1678 8.96682C33.1678 4.09219 30.7813 1.18932 26.7752 1.18932C22.9021 1.18932 20.5 4.14696 20.5 8.91988C20.5 13.7241 22.9021 16.7052 26.7752 16.7052C30.7813 16.7052 33.1678 13.818 33.1678 8.96682ZM65.3263 0.375574H73.0568V1.0876L70.7955 1.7292L70.5921 17.8789H70.2635L57.9243 2.60554L58.339 16.134L61.6957 16.7913V17.5189H54.9589C50.3894 17.5189 49.4113 16.5174 48.0655 14.7647L44.0359 9.52236L43.0813 9.21721V8.49736C43.4647 8.49736 43.8951 8.47388 44.2628 8.42694C45.3348 8.2861 47.956 7.81663 47.956 4.56166C47.956 2.4647 46.6336 1.44752 43.9029 1.44752C43.41 1.44752 42.6823 1.52577 41.9468 1.64314V16.1497L44.4115 16.7991V17.5189H36.7905V16.7913L39.576 16.1497V1.73703L36.7905 1.09542V0.375574H44.4741C49.3957 0.375574 50.4207 2.63684 50.4207 4.53818C50.4207 7.44888 47.9481 8.5756 46.4146 9.00595C46.8997 9.60843 50.7649 14.397 50.7649 14.397C52.2516 16.2514 53.3705 16.5487 54.0825 16.7522L56.5785 16.1497L56.6881 1.73703L53.8869 1.09542V0.375574H59.1058L69.4497 13.0199L69.035 1.74485L65.3263 1.10325V0.375574ZM82.5948 17.5189H74.653V16.7991L77.4385 16.1497V1.73703L74.653 1.09542V0.375574H82.6026V1.09542L79.8015 1.73703L79.8093 16.1497L82.5948 16.7991V17.5189ZM92.0076 17.5189H84.1988V16.7913L86.8826 16.1497L86.9843 1.73703L84.1988 1.09542V0.375574H89.4178L99.7539 13.0199L99.3392 1.74485L95.6304 1.10325L95.6382 0.375574H103.369V1.0876L101.107 1.7292L100.896 17.8789H100.568L88.2363 2.61337L88.651 16.1418L92.0076 16.7913V17.5189ZM119.659 16.0793C118.18 16.9556 116.303 17.9649 112.727 17.9023C107.5 17.8241 104.12 14.3344 104.096 9.16243C104.065 3.5836 107.539 0.00782445 112.962 0.00782445C115.731 0.00782445 118.126 0.712025 119.237 1.33798V5.57101H118.446C118.079 3.60707 117.038 1.19714 113.321 1.19714C109.104 1.19714 106.78 4.10001 106.78 9.05289C106.78 13.5363 109.3 16.6035 112.875 16.7209C114.871 16.7835 116.154 16.2514 117.304 15.3359V10.8838L114.026 10.2422V9.52236H121.874V10.2344L119.667 10.876C119.667 10.876 119.651 16.0714 119.659 16.0793Z" fill="#717171"/>
</g>
<defs>
<clipPath id="clip0_32_63">
<rect width="121.905" height="17.918" fill="white"/>
</clipPath>
</defs>
</svg>
