<svg width="122" height="64" viewBox="0 0 122 64" fill="none" xmlns="http://www.w3.org/2000/svg">
<g clip-path="url(#clip0_32_7)">
<path d="M28.9935 15.4084H23.4492L23.2924 15.7721L17.646 29.0574L17.9959 16.0207L18.0129 15.4084H12.3337L12.1782 15.7682L6.41872 29.0517L6.8768 16.0265L6.89992 15.4084H1.44667L1.43967 15.9976L1.13347 39.7461L1.12646 40.3513H6.7328L6.88711 39.9877L12.9272 25.7541L12.6794 39.7436L12.6684 40.3513H18.276L18.4315 39.9896L28.6381 16.2417L28.9935 15.4084Z" fill="#A7A7A7"/>
<path d="M34.6556 22.0537H29.3555L29.2522 22.522L25.2935 40.3513H30.5936L30.6981 39.8823L34.4952 22.7797L34.6556 22.0537Z" fill="#A7A7A7"/>
<path d="M34.6083 20.1059H35.0882L35.1915 19.6382L36.0372 15.826L36.2012 15.0981H30.8987L30.7966 15.5671L29.9485 19.3799L29.7881 20.1059H34.6083Z" fill="#A7A7A7"/>
<path d="M44.2938 15.4084H38.9924L38.8891 15.8755L33.4565 40.3513H38.7579L38.86 39.8823L44.1322 16.1344L44.2938 15.4084Z" fill="#A7A7A7"/>
<path d="M52.4566 15.4084H47.1565L47.052 15.8755L41.6206 40.3513H46.9195L47.0228 39.8823L52.2962 16.1344L52.4566 15.4084Z" fill="#A7A7A7"/>
<path d="M58.9788 22.0537H53.6787L53.5754 22.522L49.6167 40.3513H54.9168L55.0213 39.8823L58.8184 22.7797L58.9788 22.0537Z" fill="#A7A7A7"/>
<path d="M58.9315 20.1059H59.4115L59.5147 19.6382L60.3604 15.826L60.5245 15.0981H55.2231L55.1198 15.5671L54.2717 19.3799L54.1113 20.1059H58.9315Z" fill="#A7A7A7"/>
<path d="M67.7116 34.8645C66.5464 35.6643 65.0251 36.4314 64.0932 36.4314C63.821 36.4314 63.4552 36.3799 63.2572 36.1333C63.0458 35.8705 63.081 35.4549 63.1478 35.1529C63.5464 33.3593 65.8501 32.7593 68.2827 32.2935L67.7116 34.8645ZM74.2305 29.3749C74.8465 26.6061 74.6873 24.7475 73.7262 23.5276C72.8186 22.3699 71.194 21.8059 68.6169 21.75C65.9474 21.6793 62.6278 23.1518 61.0616 25.1015L60.7128 25.5377L61.1247 25.9161L63.3082 27.9153L63.742 28.3124L64.149 27.8871C65.0482 26.9414 66.2013 25.9739 67.9304 25.9739C68.5573 25.9739 69.047 26.1352 69.273 26.4166C69.4358 26.6209 69.4796 26.9106 69.3969 27.2806L69.1673 28.3124C62.2013 29.1848 58.6824 31.3844 57.7894 35.4137C57.4625 36.8849 57.7128 38.2301 58.4917 39.2002C59.0263 39.8638 60.0701 40.6553 62.0057 40.6553C64.0239 40.6746 65.6521 40.072 67.0895 39.3133L67.0701 39.7231L67.0434 40.3476H72.3229L72.2403 39.675C72.1675 39.0987 72.2316 38.3792 72.4469 37.4117L74.2305 29.3749Z" fill="#A7A7A7"/>
<path d="M100.606 23.0669C99.9247 22.217 98.8397 21.7499 97.5529 21.7499C94.7911 21.7499 92.8773 22.7547 91.3779 23.8731C90.7023 22.5459 89.271 21.7499 87.4484 21.7499C85.5286 21.7332 84.175 22.2131 82.7521 23.1221L82.8262 22.7849L82.9878 22.0596H78.051L77.9453 22.5273L74.1518 39.6254L73.9878 40.3514H79.2892L79.3924 39.8824L82.0717 27.8176C83.3463 26.8675 84.6476 26.2373 85.3597 26.2315C85.6926 26.2482 86.1179 26.3169 86.294 26.5431C86.4471 26.7441 86.4629 27.1463 86.3402 27.7046L83.6938 39.6254L83.5334 40.3514H88.8323L88.9356 39.8824L91.6148 27.8176C92.8882 26.8675 94.192 26.2373 94.904 26.2315C95.2382 26.2482 95.6622 26.3169 95.836 26.5431C95.9927 26.7441 96.0073 27.1463 95.8833 27.7046L93.2369 39.6254L93.0753 40.3514H98.3767L98.48 39.8824L101.205 27.6031C101.643 25.6315 101.444 24.1064 100.606 23.0669Z" fill="#A7A7A7"/>
<path d="M110.491 25.9739C111.319 25.9739 112.053 26.4661 112.803 27.5216L113.153 28.0162L113.644 27.659L117.147 25.1034L116.852 24.6326C115.709 22.8004 113.539 21.75 110.899 21.75C107.943 21.75 104.384 23.4486 103.556 27.1785C102.672 31.157 105.816 32.3995 108.11 33.304C109.765 33.9567 110.532 34.3345 110.391 34.9686C110.199 35.8301 109.257 36.4314 108.103 36.4314C106.851 36.4314 105.926 35.7555 105.194 34.3049L104.896 33.7145L104.339 34.0704L101.161 36.1005L100.725 36.3793L100.939 36.8496C102.069 39.3396 104.233 40.6553 107.198 40.6553C111.435 40.6553 114.426 38.5649 115.205 35.063C116.136 30.8679 112.811 29.5985 110.61 28.7595C109 28.1447 108.256 27.7888 108.393 27.1753C108.57 26.3787 109.277 25.9739 110.491 25.9739Z" fill="#A7A7A7"/>
<path fill-rule="evenodd" clip-rule="evenodd" d="M44.9911 44.2888C23.9996 52.8729 6.77349 54.973 6.5159 48.9804C6.44661 47.3853 7.5961 45.3771 9.7006 43.1279H6.6374C2.07117 47.4951 -0.287278 51.2373 0.282578 53.816C1.90593 61.1589 26.6691 56.3548 56.0629 43.1279H47.7494C46.8368 43.5211 45.9195 43.9098 44.9911 44.2888Z" fill="#1478C7"/>
<path fill-rule="evenodd" clip-rule="evenodd" d="M110.188 3.65405C108.639 -3.56104 85.4107 0.450258 56.9854 12.4624L58.2442 13.126C75.5978 6.22632 90.5991 2.02291 98.4655 2.33642C107.853 2.70967 104.764 9.42304 92.3804 19.1841H98.2492C106.39 12.7868 110.947 7.18161 110.188 3.65405Z" fill="#1478C7"/>
<path fill-rule="evenodd" clip-rule="evenodd" d="M112.542 10.8498C112.256 9.81803 111.492 9.03556 110.311 8.4895C109.57 9.92725 108.39 11.5166 106.809 13.228C106.61 14.784 105.295 16.8064 102.968 19.184H108.666C111.694 15.8157 113.12 12.937 112.542 10.8498Z" fill="#1478C7"/>
<path fill-rule="evenodd" clip-rule="evenodd" d="M62.3545 18.99L63.5939 19.6446C79.0168 13.5827 92.837 9.75768 100.611 9.75575C101.154 8.9964 101.578 8.28587 101.877 7.62866C92.6717 8.29165 78.4044 12.2959 62.3545 18.99Z" fill="#1478C7"/>
<path fill-rule="evenodd" clip-rule="evenodd" d="M65.1576 43.1279C60.5088 45.6006 55.4176 48.0245 50.064 50.2672C31.262 58.1466 15.3227 61.2701 10.7115 58.3971C6.8014 58.7389 4.40042 58.3329 3.1331 57.9648C2.90345 58.5018 2.74427 59.0151 2.66651 59.5015C1.37975 67.5684 22.1696 65.2364 49.098 54.2952C57.4869 50.8878 65.4821 47.0461 72.5513 43.1279H65.1576Z" fill="#1478C7"/>
<path fill-rule="evenodd" clip-rule="evenodd" d="M21.5133 43.1279H18.9616C15.1694 45.6629 11.913 48.1401 9.31641 50.4638C9.89843 50.8094 11.1341 51.1171 11.913 51.1705C14.009 48.7582 17.3091 46.0041 21.5133 43.1279Z" fill="#1478C7"/>
<path d="M118.55 37.8785V36.9586H119.166C119.478 36.9586 119.815 37.0267 119.815 37.3948C119.815 37.8522 119.471 37.8785 119.09 37.8785H118.55ZM118.55 38.2608H119.069L119.855 39.5514H120.362L119.513 38.2402C119.95 38.1863 120.284 37.9544 120.284 37.4218C120.284 36.8346 119.937 36.5757 119.232 36.5757H118.099V39.5514H118.55V38.2608ZM119.096 40.641C120.504 40.641 121.706 39.5514 121.706 38.0571C121.706 36.5757 120.504 35.4849 119.096 35.4849C117.675 35.4849 116.474 36.5757 116.474 38.0571C116.474 39.5514 117.675 40.641 119.096 40.641ZM116.992 38.0571C116.992 36.8346 117.915 35.914 119.096 35.914C120.265 35.914 121.187 36.8346 121.187 38.0571C121.187 39.2983 120.265 40.2125 119.096 40.2125C117.915 40.2125 116.992 39.2983 116.992 38.0571Z" fill="#A7A7A7"/>
</g>
<defs>
<clipPath id="clip0_32_7">
<rect width="121.905" height="64.3658" fill="white"/>
</clipPath>
</defs>
</svg>
