<svg width="131" height="33" viewBox="0 0 131 33" fill="none" xmlns="http://www.w3.org/2000/svg">
<mask id="mask0_32_47" style="mask-type:luminance" maskUnits="userSpaceOnUse" x="0" y="0" width="131" height="33">
<path d="M0 0H130.155V32.0247H0V0Z" fill="white"/>
</mask>
<g mask="url(#mask0_32_47)">
<path fill-rule="evenodd" clip-rule="evenodd" d="M47.3589 25.4906C46.6922 25.8239 45.224 26.189 43.3509 26.189C38.4541 26.189 35.47 23.1096 35.47 18.4112C35.47 13.3398 39.0176 10.2763 43.7319 10.2763C45.597 10.2763 46.9065 10.6493 47.4779 10.9588L46.8668 13.2048C46.1446 12.8794 45.1128 12.6017 43.8509 12.6017C40.7001 12.6017 38.4382 14.562 38.4382 18.2763C38.4382 21.6731 40.4224 23.8239 43.8192 23.8239C44.9541 23.8239 46.1446 23.6017 46.8906 23.2684L47.3589 25.4906ZM51.5176 21.1493C51.597 23.1731 53.1605 24.0541 54.97 24.0541C56.2637 24.0541 57.1922 23.8477 58.0494 23.5382L58.4621 25.4826C57.5097 25.8795 56.1843 26.189 54.5652 26.189C50.9383 26.189 48.8192 23.9509 48.8192 20.5303C48.8192 17.4588 50.6843 14.5461 54.2795 14.5461C57.9065 14.5461 59.0811 17.5223 59.0811 19.9668C59.0811 20.4906 59.0414 20.9112 58.9859 21.1493H51.5176ZM56.4224 19.189C56.4383 18.1572 55.9859 16.4747 54.097 16.4747C52.3589 16.4747 51.6367 18.0461 51.5097 19.189H56.4224ZM61.8113 9.68896H64.6288V25.943H61.8113V9.68896ZM76.8034 23.2604C76.8034 24.2763 76.851 25.2604 76.97 25.943H74.4304L74.2319 24.7049H74.1685C73.4939 25.5858 72.3272 26.1969 70.8827 26.1969C68.6129 26.1969 67.3669 24.5779 67.3669 22.8795C67.3669 20.0699 69.8669 18.6493 73.978 18.6652V18.4826C73.978 17.7445 73.6923 16.5302 71.7161 16.5382C70.6208 16.5382 69.478 16.8874 68.7161 17.3636L68.1605 15.5382C69.0018 15.0223 70.4462 14.5461 72.2002 14.5461C75.7796 14.5461 76.8034 16.8001 76.8034 19.2445V23.2604ZM74.0573 20.4906C72.0653 20.4668 70.1605 20.8874 70.1605 22.5779C70.1605 23.6731 70.8827 24.189 71.7716 24.189C72.8986 24.189 73.7081 23.4588 73.978 22.6414C74.0415 22.4509 74.0573 22.2287 74.0573 22.0303V20.4906ZM80.1288 18.1176C80.1288 16.8318 80.0891 15.7683 80.0335 14.808H82.5018L82.6367 16.4747H82.7081C83.2002 15.6096 84.4066 14.5541 86.2558 14.5541C88.2082 14.5541 90.224 15.8001 90.224 19.3318V25.9509H87.4066V19.6652C87.4066 18.062 86.8113 16.8398 85.2716 16.8398C84.1526 16.8398 83.3748 17.6334 83.0812 18.4985C82.9939 18.7287 82.9542 19.0699 82.9542 19.3874V25.9509H80.1288V18.1176ZM95.4621 21.1493C95.5415 23.1731 97.105 24.0541 98.9066 24.0541C100.208 24.0541 101.137 23.8557 101.986 23.5382L102.407 25.4826C101.446 25.8874 100.121 26.189 98.5098 26.189C94.8828 26.189 92.7637 23.9509 92.7637 20.5382C92.7637 17.4588 94.6288 14.5461 98.2161 14.5461C101.843 14.5461 103.026 17.5303 103.026 19.9668C103.026 20.4985 102.978 20.9112 102.93 21.1493H95.4621ZM100.367 19.189C100.375 18.1572 99.9304 16.4747 98.0415 16.4747C96.3034 16.4747 95.5812 18.0461 95.4542 19.189H100.367ZM105.724 23.3557C106.351 23.7366 107.565 24.1652 108.573 24.1652C109.811 24.1652 110.375 23.6493 110.375 22.9191C110.375 22.1652 109.907 21.7763 108.534 21.2922C106.351 20.5461 105.446 19.3557 105.454 18.0382C105.454 16.0779 107.081 14.5461 109.684 14.5461C110.915 14.5461 111.994 14.8556 112.645 15.2128L112.089 17.1969C111.621 16.9271 110.716 16.5541 109.724 16.5541C108.724 16.5541 108.161 17.0461 108.161 17.7287C108.161 18.443 108.708 18.7842 110.113 19.2922C112.145 20.0144 113.081 21.0461 113.089 22.689C113.089 24.7207 111.502 26.189 108.557 26.189C107.208 26.189 105.978 25.8636 105.161 25.4033L105.724 23.3557ZM117.796 21.1572C117.875 23.1731 119.438 24.062 121.24 24.062C122.542 24.062 123.47 23.8557 124.319 23.5461L124.74 25.4826C123.788 25.8874 122.454 26.189 120.843 26.189C117.216 26.189 115.097 23.9509 115.097 20.5382C115.097 17.4668 116.962 14.5541 120.549 14.5541C124.176 14.5541 125.359 17.5303 125.359 19.9747C125.359 20.4985 125.311 20.9191 125.264 21.1572H117.796ZM122.7 19.189C122.708 18.1572 122.264 16.4747 120.375 16.4747C118.637 16.4747 117.915 18.0541 117.788 19.189H122.7Z" fill="#656565"/>
</g>
<path d="M3.54126 17.562C3.54126 18.2763 3.60475 18.9747 3.7238 19.6572C7.00952 11.3874 17.2794 8.78419 22.208 7.99053C20.2715 6.60164 17.8984 5.78418 15.3349 5.78418C8.81905 5.78418 3.54126 11.054 3.54126 17.562ZM24.6127 10.2921C21.073 10.7286 12.4778 13.2604 10.8429 18.0937C9.7 21.4906 12.5333 22.5699 17.3826 21.2207C19.3349 20.6731 21.3032 19.8794 22.8508 18.9826V22.935C22.7318 23.0382 20.2159 24.8001 16.0095 25.9112C13.0968 26.6731 10.1286 26.943 7.77143 26.6017C9.81905 28.308 12.454 29.3398 15.3349 29.3398C21.8508 29.3398 27.1286 24.0699 27.1286 17.562C27.1286 14.8159 26.1921 12.2921 24.6127 10.2921Z" fill="url(#paint0_radial_32_47)"/>
<defs>
<radialGradient id="paint0_radial_32_47" cx="0" cy="0" r="1" gradientUnits="userSpaceOnUse" gradientTransform="translate(12.5095 14.3398) scale(15.0159 15.0159)">
<stop stop-color="#FCE1CE"/>
<stop offset="0.7" stop-color="#E75113"/>
<stop offset="1" stop-color="#E75113"/>
</radialGradient>
</defs>
</svg>
