<svg width="122" height="30" viewBox="0 0 122 30" fill="none" xmlns="http://www.w3.org/2000/svg">
<g clip-path="url(#clip0_32_45)">
<path d="M28.6306 27.1425H21.8698L19.8015 22.1538H8.53381L6.64946 27.1425H0L10.1588 1.94682H17.4367L28.6306 27.1425ZM13.8903 7.96741L10.1961 17.757H17.9543L13.8903 7.96741ZM53.1896 1.94682H58.657V27.1425H52.376V11.4045L45.5786 19.3096H44.6185L37.8215 11.4045V27.1421H31.5405V1.94682H37.0079L45.0981 11.2933L53.1896 1.94682ZM74.5716 1.94682C83.7699 1.94682 88.4978 7.67224 88.4978 14.5806C88.4978 21.8213 83.9176 27.1425 73.8692 27.1425H63.4511V1.94682H74.5716ZM69.7316 22.5245H73.8316C80.1489 22.5245 82.0332 18.2382 82.0332 14.5433C82.0332 10.2205 79.7054 6.56413 73.7577 6.56413H69.7315V22.5245H69.7316ZM100.994 7.92093L93.074 0H121.905V28.8321L113.985 20.912V7.92093H100.994ZM100.984 9.50813L92.8307 17.6614V29.0746H104.242L112.395 20.9213H100.984V9.50813Z" fill="#949494"/>
</g>
<defs>
<clipPath id="clip0_32_45">
<rect width="121.905" height="29.0748" fill="white"/>
</clipPath>
</defs>
</svg>
