<svg width="66" height="14" viewBox="0 0 66 14" fill="none" xmlns="http://www.w3.org/2000/svg">
<g clip-path="url(#clip0_32_67)">
<path d="M69.9779 2.92512V0H73.328V13.7006H69.9779V2.92512ZM55.2273 0H68.1528V2.95012H62.0775V13.7256H58.7524V2.95012H55.2273V0ZM121.905 0V2.95012H115.83V13.7256H112.505V2.95012H108.979V0H121.905ZM0 0H14.5006V2.95012H3.35014V5.87524H12.8505V8.82536H3.35014V13.7006H0V0ZM93.6288 0H107.129V2.95012H96.979V5.40022H105.304V8.35034H96.979V10.8004H107.304V13.7506H93.6288V0ZM91.0537 3.87516V13.7006H87.7036V3.87516C87.7036 3.35014 87.3036 2.95012 86.7785 2.95012H79.2782V13.7256H75.9281V0H87.1786C89.3037 0 91.0537 1.75007 91.0537 3.87516ZM50.077 0H38.6516V13.7006H42.0017V8.82536H49.502C49.902 8.85036 50.2271 9.17537 50.2271 9.57539V13.7256H53.5772V9.52539C53.5772 8.80036 53.1772 8.17533 52.5772 7.82532C53.3022 7.15029 53.7522 6.17525 53.7522 5.12521V3.67515C53.7772 1.65007 52.1271 0 50.077 0ZM50.4271 5.12521C50.4271 5.52523 50.102 5.87524 49.677 5.87524H42.0017V2.95012H49.677C50.077 2.95012 50.4271 3.27513 50.4271 3.70015V5.12521Z" fill="#6B6B6B"/>
<path d="M36.0516 5.10021V8.65035H30.5014V5.10021H36.0516ZM23.4761 13.7006H29.0013V10.1504H23.4761V13.7006ZM36.0516 2.97512C36.0516 1.32505 34.7265 0 33.0765 0H30.5264V3.55015H36.0516V2.97512ZM23.4761 0V3.55015H29.0013V0H23.4761ZM16.4258 5.10021V8.65035H21.951V5.10021H16.4258ZM30.5014 13.7006H33.0515C34.7015 13.7006 36.0266 12.3755 36.0266 10.7254V10.1504H30.5014V13.7006ZM16.4258 10.7254C16.4258 12.3755 17.7508 13.7006 19.4009 13.7006H21.951V10.1504H16.4258V10.7254ZM16.4258 2.97512V3.55015H21.951V0H19.4009C17.7508 0 16.4258 1.32505 16.4258 2.97512Z" fill="#B0FF00"/>
</g>
<defs>
<clipPath id="clip0_32_67">
<rect width="121.905" height="13.7506" fill="white"/>
</clipPath>
</defs>
</svg>
