<svg width="50" height="50" viewBox="0 0 50 50" fill="none" xmlns="http://www.w3.org/2000/svg">
<rect width="50" height="50" rx="25" fill="white"/>
<path d="M25 12.5C25.3315 12.5 25.6495 12.6317 25.8839 12.8661C26.1183 13.1005 26.25 13.4185 26.25 13.75C26.25 14.0815 26.1183 14.3995 25.8839 14.6339C25.6495 14.8683 25.3315 15 25 15C23.0222 15 21.0888 15.5865 19.4443 16.6853C17.7998 17.7841 16.5181 19.3459 15.7612 21.1732C15.0043 23.0004 14.8063 25.0111 15.1921 26.9509C15.578 28.8907 16.5304 30.6725 17.9289 32.0711C19.3275 33.4696 21.1093 34.422 23.0491 34.8079C24.9889 35.1937 26.9996 34.9957 28.8268 34.2388C30.6541 33.4819 32.2159 32.2002 33.3147 30.5557C34.4135 28.9112 35 26.9778 35 25C35 24.6685 35.1317 24.3505 35.3661 24.1161C35.6005 23.8817 35.9185 23.75 36.25 23.75C36.5815 23.75 36.8995 23.8817 37.1339 24.1161C37.3683 24.3505 37.5 24.6685 37.5 25C37.5 31.9037 31.9037 37.5 25 37.5C18.0963 37.5 12.5 31.9037 12.5 25C12.5 18.0963 18.0963 12.5 25 12.5ZM25 17.5C25.3315 17.5 25.6495 17.6317 25.8839 17.8661C26.1183 18.1005 26.25 18.4185 26.25 18.75C26.25 19.0815 26.1183 19.3995 25.8839 19.6339C25.6495 19.8683 25.3315 20 25 20C24.0111 20 23.0444 20.2932 22.2221 20.8427C21.3999 21.3921 20.759 22.173 20.3806 23.0866C20.0022 24.0002 19.9031 25.0055 20.0961 25.9755C20.289 26.9454 20.7652 27.8363 21.4645 28.5355C22.1637 29.2348 23.0546 29.711 24.0245 29.9039C24.9945 30.0969 25.9998 29.9978 26.9134 29.6194C27.827 29.241 28.6079 28.6001 29.1573 27.7779C29.7068 26.9556 30 25.9889 30 25C30 24.6685 30.1317 24.3505 30.3661 24.1161C30.6005 23.8817 30.9185 23.75 31.25 23.75C31.5815 23.75 31.8995 23.8817 32.1339 24.1161C32.3683 24.3505 32.5 24.6685 32.5 25C32.5 26.4834 32.0601 27.9334 31.236 29.1668C30.4119 30.4001 29.2406 31.3614 27.8701 31.9291C26.4997 32.4968 24.9917 32.6453 23.5368 32.3559C22.082 32.0665 20.7456 31.3522 19.6967 30.3033C18.6478 29.2544 17.9335 27.918 17.6441 26.4632C17.3547 25.0083 17.5032 23.5003 18.0709 22.1299C18.6386 20.7594 19.5999 19.5881 20.8332 18.764C22.0666 17.9399 23.5166 17.5 25 17.5ZM33.2137 12.625C33.3795 12.625 33.5385 12.6908 33.6557 12.8081C33.7729 12.9253 33.8387 13.0842 33.8387 13.25V15.5375C33.8391 15.703 33.9051 15.8617 34.0223 15.9786C34.1394 16.0956 34.2982 16.1613 34.4637 16.1612H36.75C36.9158 16.1612 37.0747 16.2271 37.1919 16.3443C37.3092 16.4615 37.375 16.6205 37.375 16.7863V17.93L35.015 20.29C34.5463 20.7589 33.9105 21.0224 33.2475 21.0225H30.7475L25.885 25.8837C25.6492 26.1114 25.3335 26.2374 25.0057 26.2346C24.678 26.2317 24.3645 26.1003 24.1327 25.8685C23.901 25.6368 23.7695 25.3232 23.7667 24.9955C23.7638 24.6678 23.8898 24.352 24.1175 24.1163L28.98 19.255V16.755C28.9798 16.0922 29.2428 15.4564 29.7113 14.9875L32.0737 12.625H33.2137Z" fill="#3746F2"/>
</svg>
