<svg width="60" height="60" viewBox="0 0 60 60" fill="none" xmlns="http://www.w3.org/2000/svg">
<rect width="60" height="60" rx="10" fill="#FEC9C9"/>
<path d="M30.5 23.125V49.375" stroke="#D00C0C" stroke-width="2" stroke-linecap="round" stroke-linejoin="round"/>
<path d="M13.625 43.75C13.1277 43.75 12.6508 43.5525 12.2992 43.2008C11.9475 42.8492 11.75 42.3723 11.75 41.875V17.5C11.75 17.0027 11.9475 16.5258 12.2992 16.1742C12.6508 15.8225 13.1277 15.625 13.625 15.625H23C24.9891 15.625 26.8968 16.4152 28.3033 17.8217C29.7098 19.2282 30.5 21.1359 30.5 23.125C30.5 21.1359 31.2902 19.2282 32.6967 17.8217C34.1032 16.4152 36.0109 15.625 38 15.625H47.375C47.8723 15.625 48.3492 15.8225 48.7008 16.1742C49.0525 16.5258 49.25 17.0027 49.25 17.5V41.875C49.25 42.3723 49.0525 42.8492 48.7008 43.2008C48.3492 43.5525 47.8723 43.75 47.375 43.75H36.125C34.6332 43.75 33.2024 44.3426 32.1475 45.3975C31.0926 46.4524 30.5 47.8832 30.5 49.375C30.5 47.8832 29.9074 46.4524 28.8525 45.3975C27.7976 44.3426 26.3668 43.75 24.875 43.75H13.625Z" stroke="#D00C0C" stroke-width="2" stroke-linecap="round" stroke-linejoin="round"/>
</svg>
