<svg width="60" height="60" viewBox="0 0 60 60" fill="none" xmlns="http://www.w3.org/2000/svg">
<rect width="60" height="60" rx="10" fill="#FFBDDD"/>
<path d="M15.5 33.25C15.1452 33.2512 14.7974 33.1517 14.4968 32.9631C14.1963 32.7745 13.9555 32.5044 13.8023 32.1844C13.6492 31.8643 13.59 31.5074 13.6316 31.155C13.6732 30.8026 13.814 30.4693 14.0375 30.1938L32.6 11.0688C32.7393 10.908 32.929 10.7994 33.1381 10.7607C33.3472 10.7221 33.5633 10.7556 33.7508 10.8559C33.9383 10.9562 34.0861 11.1173 34.17 11.3127C34.254 11.5081 34.2689 11.7262 34.2125 11.9313L30.6125 23.2187C30.5064 23.5029 30.4707 23.8085 30.5087 24.1094C30.5466 24.4103 30.6569 24.6975 30.8302 24.9464C31.0035 25.1953 31.2346 25.3985 31.5037 25.5384C31.7728 25.6784 32.0718 25.751 32.375 25.75H45.5C45.8549 25.7488 46.2027 25.8483 46.5033 26.0369C46.8038 26.2256 47.0446 26.4956 47.1978 26.8156C47.3509 27.1357 47.4101 27.4927 47.3685 27.845C47.3268 28.1974 47.1861 28.5307 46.9625 28.8063L28.4 47.9312C28.2608 48.092 28.0711 48.2006 27.862 48.2392C27.6529 48.2779 27.4368 48.2444 27.2493 48.1441C27.0618 48.0438 26.9139 47.8827 26.83 47.6873C26.7461 47.4919 26.7312 47.2738 26.7875 47.0688L30.3875 35.7813C30.4937 35.4971 30.5293 35.1915 30.4914 34.8906C30.4535 34.5897 30.3432 34.3025 30.1699 34.0536C29.9966 33.8047 29.7655 33.6015 29.4964 33.4616C29.2273 33.3216 28.9283 33.249 28.625 33.25H15.5Z" stroke="#FF3E9B" stroke-width="2" stroke-linecap="round" stroke-linejoin="round"/>
</svg>
