<svg width="60" height="60" viewBox="0 0 60 60" fill="none" xmlns="http://www.w3.org/2000/svg">
<rect width="60" height="60" rx="10" fill="#F8D2FF"/>
<path d="M37.0194 32.1687L39.86 48.155C39.8918 48.3432 39.8654 48.5367 39.7843 48.7095C39.7032 48.8823 39.5713 49.0263 39.4061 49.1221C39.241 49.2179 39.0506 49.261 38.8603 49.2457C38.67 49.2303 38.4889 49.1572 38.3413 49.0362L31.6288 43.9981C31.3047 43.756 30.9111 43.6252 30.5066 43.6252C30.1021 43.6252 29.7084 43.756 29.3844 43.9981L22.6606 49.0343C22.5131 49.1551 22.3323 49.2281 22.1422 49.2435C21.9521 49.2588 21.7619 49.2159 21.5969 49.1203C21.4319 49.0248 21.2999 48.8812 21.2186 48.7087C21.1373 48.5362 21.1106 48.343 21.1419 48.155L23.9806 32.1687" stroke="#BD00DE" stroke-width="2" stroke-linecap="round" stroke-linejoin="round"/>
<path d="M30.5 34.25C36.7132 34.25 41.75 29.2132 41.75 23C41.75 16.7868 36.7132 11.75 30.5 11.75C24.2868 11.75 19.25 16.7868 19.25 23C19.25 29.2132 24.2868 34.25 30.5 34.25Z" stroke="#BD00DE" stroke-width="2" stroke-linecap="round" stroke-linejoin="round"/>
</svg>
