<svg width="50" height="50" viewBox="0 0 50 50" fill="none" xmlns="http://www.w3.org/2000/svg">
<rect width="50" height="50" rx="8" fill="#DBEAFE"/>
<path d="M39.1302 23.383C39.3987 23.2646 39.6266 23.07 39.7856 22.8233C39.9446 22.5766 40.0277 22.2886 40.0247 21.9952C40.0216 21.7017 39.9326 21.4155 39.7685 21.1722C39.6045 20.9288 39.3726 20.7389 39.1017 20.626L26.2452 14.77C25.8543 14.5918 25.4298 14.4995 25.0002 14.4995C24.5706 14.4995 24.146 14.5918 23.7552 14.77L10.9002 20.62C10.6331 20.737 10.406 20.9293 10.2464 21.1733C10.0869 21.4173 10.002 21.7025 10.002 21.994C10.002 22.2856 10.0869 22.5708 10.2464 22.8148C10.406 23.0588 10.6331 23.2511 10.9002 23.368L23.7552 29.23C24.146 29.4083 24.5706 29.5006 25.0002 29.5006C25.4298 29.5006 25.8543 29.4083 26.2452 29.23L39.1302 23.383Z" stroke="#155DFC" stroke-width="1.5" stroke-linecap="round" stroke-linejoin="round"/>
<path d="M40 22V31" stroke="#155DFC" stroke-width="1.5" stroke-linecap="round" stroke-linejoin="round"/>
<path d="M16 25.75V31C16 32.1935 16.9482 33.3381 18.636 34.182C20.3239 35.0259 22.6131 35.5 25 35.5C27.3869 35.5 29.6761 35.0259 31.364 34.182C33.0518 33.3381 34 32.1935 34 31V25.75" stroke="#155DFC" stroke-width="1.5" stroke-linecap="round" stroke-linejoin="round"/>
</svg>
