<svg width="60" height="60" viewBox="0 0 60 60" fill="none" xmlns="http://www.w3.org/2000/svg">
<rect width="60" height="60" rx="10" fill="#FFD5C6"/>
<path d="M45.5 31.3751C45.5 40.7501 38.9375 45.4376 31.1375 48.1564C30.7291 48.2948 30.2854 48.2881 29.8813 48.1376C22.0625 45.4376 15.5 40.7501 15.5 31.3751V18.2501C15.5 17.7528 15.6975 17.2759 16.0492 16.9243C16.4008 16.5727 16.8777 16.3751 17.375 16.3751C21.125 16.3751 25.8125 14.1251 29.075 11.2751C29.4722 10.9357 29.9775 10.7493 30.5 10.7493C31.0225 10.7493 31.5278 10.9357 31.925 11.2751C35.2063 14.1439 39.875 16.3751 43.625 16.3751C44.1223 16.3751 44.5992 16.5727 44.9508 16.9243C45.3025 17.2759 45.5 17.7528 45.5 18.2501V31.3751Z" stroke="#FF4400" stroke-width="2" stroke-linecap="round" stroke-linejoin="round"/>
</svg>
