<svg width="54" height="33" viewBox="0 0 54 33" fill="none" xmlns="http://www.w3.org/2000/svg">
<path d="M1 28V13.6H4.08V28H1ZM2.44 28V25.64H11.72V28H2.44ZM2.44 21.8V19.48H11.02V21.8H2.44ZM2.44 15.96V13.6H11.48V15.96H2.44ZM15.3995 28V25.6H19.0395C20.0795 25.6 20.9595 25.3933 21.6795 24.98C22.4129 24.5533 22.9662 23.9733 23.3395 23.24C23.7262 22.5067 23.9195 21.6667 23.9195 20.72C23.9195 19.7867 23.7329 18.9667 23.3595 18.26C22.9862 17.5533 22.4329 17 21.6995 16.6C20.9795 16.2 20.0929 16 19.0395 16H15.4595V13.6H19.0395C20.6529 13.6 22.0595 13.8933 23.2595 14.48C24.4595 15.0533 25.3862 15.88 26.0395 16.96C26.7062 18.0267 27.0395 19.2933 27.0395 20.76C27.0395 22.2267 26.7062 23.5067 26.0395 24.6C25.3729 25.68 24.4395 26.52 23.2395 27.12C22.0529 27.7067 20.6595 28 19.0595 28H15.3995ZM13.5195 28V13.6H16.5995V28H13.5195ZM34.6558 28.2C32.6024 28.2 31.0624 27.64 30.0358 26.52C29.0224 25.3867 28.5158 23.74 28.5158 21.58V13.6H31.5958V22.12C31.5958 23.3733 31.8691 24.2933 32.4158 24.88C32.9624 25.4667 33.7158 25.76 34.6758 25.76C35.6358 25.76 36.3891 25.4667 36.9358 24.88C37.4824 24.2933 37.7558 23.38 37.7558 22.14V13.6H40.8358V21.62C40.8358 23.7533 40.3224 25.3867 39.2958 26.52C38.2691 27.64 36.7224 28.2 34.6558 28.2Z" fill="#0014FF"/>
<path d="M43.24 9.024V16.08C43.24 16.6987 43.272 17.216 43.336 17.632C43.4 18.048 43.4853 18.3947 43.592 18.672C43.7093 18.9387 43.8373 19.1573 43.976 19.328C44.1253 19.488 44.28 19.6267 44.44 19.744C44.504 19.7973 44.5253 19.8507 44.504 19.904C44.4933 19.9573 44.4453 19.984 44.36 19.984H41.608C41.544 19.984 41.5013 19.9573 41.48 19.904C41.4693 19.8507 41.496 19.7973 41.56 19.744C41.72 19.6267 41.8693 19.488 42.008 19.328C42.1573 19.1573 42.2853 18.9387 42.392 18.672C42.5093 18.3947 42.6 18.048 42.664 17.632C42.728 17.216 42.76 16.6987 42.76 16.08V9.024C42.76 8.77867 42.7547 8.55467 42.744 8.352C42.7333 8.14933 42.7173 7.95733 42.696 7.776C42.6427 7.27467 42.5413 6.82667 42.392 6.432C42.2533 6.02667 41.976 5.66933 41.56 5.36C41.496 5.30667 41.4693 5.25333 41.48 5.2C41.5013 5.14667 41.544 5.12 41.608 5.12H43.08C43.464 5.12 43.752 5.264 43.944 5.552L51.48 16.048V9.024C51.48 8.40533 51.448 7.888 51.384 7.472C51.32 7.056 51.2293 6.71467 51.112 6.448C51.0053 6.17067 50.8773 5.952 50.728 5.792C50.5893 5.62133 50.44 5.47733 50.28 5.36C50.216 5.30667 50.1893 5.25333 50.2 5.2C50.2213 5.14667 50.2747 5.12 50.36 5.12H53.112C53.176 5.12 53.2133 5.14667 53.224 5.2C53.2453 5.25333 53.224 5.30667 53.16 5.36C53 5.47733 52.8453 5.62133 52.696 5.792C52.5573 5.952 52.4293 6.17067 52.312 6.448C52.2053 6.71467 52.12 7.056 52.056 7.472C51.992 7.888 51.96 8.40533 51.96 9.024V16.08C51.96 16.4 51.9653 16.736 51.976 17.088C51.9973 17.4293 52.0453 17.7653 52.12 18.096C52.2053 18.416 52.328 18.72 52.488 19.008C52.648 19.2853 52.872 19.5307 53.16 19.744C53.224 19.7973 53.2453 19.8507 53.224 19.904C53.2133 19.9573 53.176 19.984 53.112 19.984H51.656C51.2933 19.984 51.0053 19.84 50.792 19.552L43.24 9.024Z" fill="#00064D"/>
</svg>
