<svg width="60" height="60" viewBox="0 0 60 60" fill="none" xmlns="http://www.w3.org/2000/svg">
<rect width="60" height="60" rx="10" fill="white"/>
<path d="M37.5 47.375V43.625C37.5 41.6359 36.7098 39.7282 35.3033 38.3217C33.8968 36.9152 31.9891 36.125 30 36.125H18.75C16.7609 36.125 14.8532 36.9152 13.4467 38.3217C12.0402 39.7282 11.25 41.6359 11.25 43.625V47.375" stroke="#4554FF" stroke-width="2.5" stroke-linecap="round" stroke-linejoin="round"/>
<path d="M37.5 13.8652C39.1083 14.2822 40.5326 15.2214 41.5494 16.5354C42.5662 17.8493 43.1179 19.4638 43.1179 21.1252C43.1179 22.7867 42.5662 24.4011 41.5494 25.7151C40.5326 27.0291 39.1083 27.9683 37.5 28.3852" stroke="#4554FF" stroke-width="2.5" stroke-linecap="round" stroke-linejoin="round"/>
<path d="M48.75 47.3749V43.6249C48.7488 41.9631 48.1957 40.3488 47.1776 39.0355C46.1595 37.7221 44.734 36.7841 43.125 36.3687" stroke="#4554FF" stroke-width="2.5" stroke-linecap="round" stroke-linejoin="round"/>
<path d="M24.375 28.625C28.5171 28.625 31.875 25.2671 31.875 21.125C31.875 16.9829 28.5171 13.625 24.375 13.625C20.2329 13.625 16.875 16.9829 16.875 21.125C16.875 25.2671 20.2329 28.625 24.375 28.625Z" stroke="#4554FF" stroke-width="2.5" stroke-linecap="round" stroke-linejoin="round"/>
</svg>
