<svg width="50" height="50" viewBox="0 0 50 50" fill="none" xmlns="http://www.w3.org/2000/svg">
<rect width="50" height="50" rx="8" fill="#F3E8FF"/>
<path d="M22.5 25H27.5" stroke="#9810FA" stroke-width="1.5" stroke-linecap="round" stroke-linejoin="round"/>
<path d="M22.5 20H27.5" stroke="#9810FA" stroke-width="1.5" stroke-linecap="round" stroke-linejoin="round"/>
<path d="M27.5 36.25V32.5C27.5 31.837 27.2366 31.2011 26.7678 30.7322C26.2989 30.2634 25.663 30 25 30C24.337 30 23.7011 30.2634 23.2322 30.7322C22.7634 31.2011 22.5 31.837 22.5 32.5V36.25" stroke="#9810FA" stroke-width="1.5" stroke-linecap="round" stroke-linejoin="round"/>
<path d="M17.5 22.5H15C14.337 22.5 13.7011 22.7634 13.2322 23.2322C12.7634 23.7011 12.5 24.337 12.5 25V33.75C12.5 34.413 12.7634 35.0489 13.2322 35.5178C13.7011 35.9866 14.337 36.25 15 36.25H35C35.663 36.25 36.2989 35.9866 36.7678 35.5178C37.2366 35.0489 37.5 34.413 37.5 33.75V21.25C37.5 20.587 37.2366 19.9511 36.7678 19.4822C36.2989 19.0134 35.663 18.75 35 18.75H32.5" stroke="#9810FA" stroke-width="1.5" stroke-linecap="round" stroke-linejoin="round"/>
<path d="M17.5 36.25V16.25C17.5 15.587 17.7634 14.9511 18.2322 14.4822C18.7011 14.0134 19.337 13.75 20 13.75H30C30.663 13.75 31.2989 14.0134 31.7678 14.4822C32.2366 14.9511 32.5 15.587 32.5 16.25V36.25" stroke="#9810FA" stroke-width="1.5" stroke-linecap="round" stroke-linejoin="round"/>
</svg>
