<svg width="50" height="50" viewBox="0 0 50 50" fill="none" xmlns="http://www.w3.org/2000/svg">
<rect width="50" height="50" rx="8" fill="#DBFCE7"/>
<path d="M31 37V13C31 12.2044 30.6839 11.4413 30.1213 10.8787C29.5587 10.3161 28.7956 10 28 10H22C21.2044 10 20.4413 10.3161 19.8787 10.8787C19.3161 11.4413 19 12.2044 19 13V37" stroke="#00A63E" stroke-width="1.5" stroke-linecap="round" stroke-linejoin="round"/>
<path d="M37 16H13C11.3431 16 10 17.3431 10 19V34C10 35.6569 11.3431 37 13 37H37C38.6569 37 40 35.6569 40 34V19C40 17.3431 38.6569 16 37 16Z" stroke="#00A63E" stroke-width="1.5" stroke-linecap="round" stroke-linejoin="round"/>
</svg>
